<?xml version="1.0" encoding="utf-8"?>
<!-- Generator: Adobe Illustrator 26.1.0, SVG Export Plug-In . SVG Version: 6.00 Build 0)  -->
<svg version="1.1" id="a" xmlns="http://www.w3.org/2000/svg" xmlns:xlink="http://www.w3.org/1999/xlink" x="0px" y="0px"
	 viewBox="0 0 658 465.5" style="enable-background:new 0 0 658 465.5;" xml:space="preserve">
<style type="text/css">
	.st0{fill:#FFFAFA;}
	.st1{fill:#FFFFFF;stroke:#000000;stroke-width:5;stroke-linejoin:bevel;}
	.st2{font-family:'DINCondensed-Bold';}
	.st3{font-size:114px;}
</style>
<path class="st0" d="M507.9,154.7c5.4-0.1,6.9-5.6,4.5-9.4c-13.2-21-35.1-53.1-64.6-46.6c-7.9,0.8-14.8-0.2-21.5-4.4
	c3.5,0.2,7.5,0,8.2-3.8c0.6-6.8-6-12.6-10.8-17.1c3.2-1.6,3.4-6.6,1.1-8.5c-3.4-4.6-11.6-5.3-14.9-7.8c1.9-2.3,1.5-5.1-1-6.7
	c-17.1-8.6-44.2-2.8-56.4-14c-7.9-1.1-13.8,1.1-19.1,6.4c-5.2-5.5-11.2-7.4-19.1-6.4c-4.9,12.2-64.5,3.3-57.3,21.3
	c-7,1.3-22.3,7.7-14.2,15.6c-3.3,4.5-10.5,9.6-10.6,16.2c0.1,4.4,4.3,5.2,8.3,4.8c-7.2,4.4-17.2,6.7-25,2.8
	c-29.4,0.5-49.4,27.7-61.8,50.2c-1.1,3.9,0.6,6.8,5,7.3c-4.2,9.4-5.6,22.8-1.8,33.3c4.5,7.1,10,13.6,16.2,19.5
	c1.5,17.2-13.4,36.2-8.1,55c1.2,65.9,74.4,89.8,119.8,40.5c13.7-13.2,8.2-6.7,11.2,7.2c-0.8,24.4,1.9,48.9,4.9,73
	c4.4,15,3.2,37.4,22.6,42.6c8.6,5,11.8,4,20.2,0c15.5-4.5,19.2-22.1,20.4-35.7c7-27.6,6-56.6,7.5-84.8c-0.1-21,6.8-2.5,18.3,4.4
	c37.6,36.6,102.4,19.6,109.9-32.2c12.7-39.3-19.2-63.3,1.9-78l0,0C513.7,187.7,515.5,169,507.9,154.7z M261.4,260.8
	c0,0-2.4,11.9-18.8,20.1c-16.4,8.3-27.6-0.8-27.6-0.8s-17.1-9.5-17.8-29.1c-0.7-19.6,0-20.8,0-20.8s6.9,11,20,14.4
	s20.8,3.1,35.3-7.9c14.6-11,4.1-1.3,4.1-1.3s-2.3,3.8,1.1,8.6c3.4,4.9-4,10.5-4,10.5l9.1,1.1L261.4,260.8z M469.2,255.1
	c-4.8,15.5-15.2,24.8-15.2,24.8c-30.6,15.3-47.8-17.5-48.3-19.8s2.3-5.3,5-6.3c2.7-1-1.4-15.9-1.4-15.9l5.2-0.7l10.6,5.9l18,2
	l15-3.9l10.5-6.7C468.4,234.6,474,239.7,469.2,255.1z"/>
<g>
	<path d="M501.6,199.3c12.1-11.8,13.9-30.5,6.2-44.8c5.4-0.1,6.9-5.6,4.5-9.4c-13.2-21-35.1-53.1-64.6-46.6
		c-7.9,0.8-14.8-0.2-21.5-4.4c3.5,0.2,7.5,0,8.2-3.8c0.6-6.8-6-12.6-10.8-17.1c3.2-1.6,3.4-6.6,1.1-8.5c-3.4-4.6-11.6-5.3-14.9-7.8
		c1.9-2.3,1.5-5.1-1-6.7c-17.1-8.6-44.2-2.8-56.4-14c-7.9-1.1-13.8,1.1-19.1,6.4c-5.2-5.5-11.2-7.4-19.1-6.4
		c-4.9,12.2-64.5,3.3-57.3,21.3c-7,1.3-22.3,7.7-14.1,15.6c-3.3,4.5-10.5,9.6-10.6,16.2c0.1,4.4,4.3,5.2,8.3,4.8
		c-7.2,4.4-17.2,6.7-25,2.8c-29.4,0.5-49.4,27.7-61.8,50.2c-1.1,3.9,0.6,6.8,4.9,7.3c-4.2,9.4-5.7,22.8-1.8,33.3
		c4.5,7.1,10,13.6,16.2,19.5c1.5,17.2-13.4,36.2-8.1,55c1.1,65.9,74.4,89.8,119.8,40.5c13.7-13.2,8.2-6.7,11.2,7.2
		c-0.8,24.4,1.9,48.9,4.9,73c4.4,15,3.2,37.4,22.6,42.6c8.6,5,11.8,4,20.2,0c15.5-4.5,19.2-22.1,20.4-35.7c7-27.6,6-56.6,7.5-84.8
		c-0.1-21,6.8-2.5,18.3,4.4c37.6,36.6,102.4,19.6,109.9-32.2C512.4,238,480.5,213.9,501.6,199.3L501.6,199.3z M394.7,56.9
		c-5,4.3-9.5-3.3-15.2-5.8C384.3,52.8,401.5,55.2,394.7,56.9z M288,50.9c-4.9,2.5-8.2,6-13.4,8.1c-0.4-1.7-0.5-1.7-2.3-2.1
		C265.2,55.1,284.3,52.6,288,50.9L288,50.9z M254.6,68.9c-4.7-2,12.6-5.1,15.9-6c14.4-6.8,26.8-18.1,44.1-13.4
		c2.3,0.8,3.4-1.3,5.4-1.5c1,0.3,5.8,2.3,4.3,0.7c-12.3-6.3-1.2-9.7,4.4-0.2c8,7.1,12.2-7.3,19.5-6.1c-0.2,4.3-3,5.1-6.2,7.1
		c5.4-2.1,5.3-0.5,10.1,0.1c7.2-1.2,17-1.7,23,1.8c12.6,8.6,25.8,12,39.2,17.1c-14.2-0.1,5.4,11.6,6.5,18.4c-2.4-1-7.8-4-7,0.4
		c4.7,5.9-1.9,7.6-1.1,13.8c-5.1-8.9-3.9-22.3-15.1-27.1c8,5.2,7.7,13.7,10.4,21.7c6.4,12.7,1,27.1,13.9,36.7
		c-12.6,2.2-12.7-4.8-19.4-11.3c-4.7,1,3.2,6.8,1.2,10.1c1.9,7.1-9,16.2-9.5,5.4c-7.2-10.1-1,8.1-9.1,13.1
		c1.7-1.9,4.2-23.8-1.1-16.9c0,1.3-0.7-0.3-1.1-0.7c-1.3,2.2,2.1,4.9,0.1,7.5c-4-3.7,1.7,4.1-0.7,8.4c-5.6-16.3-3.8,3.8-6.7-7.2
		c-2.2-2-1,2.6-1,3.8c0,6.1-4.5,11.9-9.8,15.2c-1.5-3.8-0.2-10.4-3.7-12.5c-0.9,1.9-0.9,5.8,0,9.1c-0.1,0.3-0.2,0.6-0.4,0.9
		c-2.6-3.1-4.7-6.4-6.3-10v0.1c-1.4-4.9-2.2-9.1-3.7-5.9c0.1,2.4,1.3,6.8,3.1,10.4l-0.1,0.6c-0.5-0.3-0.9-0.6-1.3-1
		c-0.3-0.6-1-1.4-2.2-2.4c-0.9-1.7-3.2-12.3-4.8-7.2c1.6,6.8-1.4,6-4.9,8.4c-2.1-2.6-1.1-7.3-3.6-8.6c-1.5,0-1.3,1.5-1.3,2.5
		c-1.4-1.3,0.1-3.1-1-4.4c-3.7-1.2-1.4,3-2.7,4.5c0.4-2.2-2.5-3.9-2.8-0.9c0.1,4.3-2,6.1-4,6.1c-1.4-0.7-2.5-1.6-3.3-2.8
		c-0.4-1.2-0.4-2.8,0.1-4.6c-1.6-4.7-3.7,4.5-4.8,7.1c-0.8-0.2-1.4-0.8-1.7-1.4c1.4-4,1.6-7.5-0.9-7.1c-0.4,3.6-1.2,7.3-2.7,10.6
		c-0.7,0.8-1.5,1.5-2.4,2.1c-0.5-2-0.9-3.9-1.4-5.9c-0.5,1.1-1,2.1-1.4,3c-0.1-1.2-0.3-2.2-0.6-3c-2.7,1.4-2.6,5.5-3,9
		c-0.6,0.9-1.3,1.8-2,2.7c-6.9-3.9-8.7-12.1-8.5-18.9c-5.8,12.3-0.9-9.8-7.7,7.6c-2.1-3.2,2.6-11.8-0.4-8.2
		c-2.5-1.9,1.2-5.9-0.1-7.4c-1.8,3-0.2-1.1-2.5-0.8c-1.5,0.3-3.4,10.9-1.5,11.1c2.3,7.3,1.4,8.4-2.2,1c-1.5-2.2-0.7-15-1.5-8.8
		c-1.4-1-3.2-0.6-3.5,1.2c-3.6,15.8-14.5-4.2-6.9-14.4c-7.8,0.5-3.8,11.7-17.3,11.5c-8.9,0.8,7-8.6,5.4-14.3
		c2-13.5,4.1-33.6,15.2-44.6c-11.1,5.4-9.6,18.1-15.1,27.3c-0.2-2.5,1.1-7-2.8-6.9c7.4-21.4-17.1,5.4,6.7-23.2
		C259,68.9,256.8,68,254.6,68.9L254.6,68.9z M417,115.3c3.2,1.1,8.7-0.3,9.7,3.2C423.2,118.8,417.4,119.6,417,115.3z M378.2,147.4
		c1,1.9,2.4,3.5,3,5.7C379,151.9,377.7,149.3,378.2,147.4z M347.3,149l-0.1,1c-0.3-0.1-0.6-0.2-0.9-0.2
		C346.6,149.5,346.9,149.2,347.3,149L347.3,149z M293.9,155.5c-0.5,0.2-2.1-2.2-1.5-2.4C293,153.9,293.4,154.7,293.9,155.5z
		 M286,152.8c0.5-2,1.8-3.6,2.8-5.4C289.3,149.3,288.1,151.7,286,152.8z M240.4,118.6c0.9-3.6,6.5-2.1,9.6-3.3
		C249.8,119.6,243.8,118.8,240.4,118.6z M168,174c0.2-2.8,6.2-31.1,10.3-28.8c-2-1.1-4.2,0.6-6.3,0.7c-2.6-1.3-3.7-3-7-1.5
		c9.8-18,25.5-24.3,40.4-37.3c12.2-3.7,34.5,3.4,36.8-5.8c9.8-8.7,8.4,5.7,6.6,11.3c-3.6,0.8-13.2,3.1-9.3,7.7
		c14.7-0.5,3.5,5.8,1.1,11.1c0.8,1.7,2,4.2,4.5,3.5c6-0.5-4.9,5.8-4.9,8.8c-7.8-0.3-3.9-1.4-1.9-5.5c-3.6-5.6,1-4.8-2.1-7
		c-3-1.3-11.7-6.4-12.4-1.4c2.8-0.3,13.2,1.8,10.5,4.6c-12.6-8.9-30-5.8-38.1,7.8c-7.2,10.1-17.2,19.1-18.2,32.2
		c-0.3,1.3-1.3,2.5-1.4,3.8c4.3-5.8,2.1,8,4.4,11.5c2.6,4-1.5,13.4-7.1,9.6C166.2,194.2,167.4,181.7,168,174L168,174z M236.9,156.4
		c0.5-1.6,3.3-1.9,4.6-2.9C240.9,155.2,239,159.2,236.9,156.4z M239,172.1c-0.8,1.9-1.6,3.8-2.4,5.6
		C233.2,177.9,236.2,172.8,239,172.1z M190.1,154.8c1.5-3.7,13.6-9.8,4.8-6.8c6-5,13.7-15.9,22.4-13.8c0.6,2,1.1,2.4,3.6,2.3
		c6.3-2.3,3.6,6.2,9.6,4.6c-2.5,5.2,3.9,5.1,2.5,8.8c-1.3,14.2-22.7,11.4-33.1,21.7c-17.8,9.2-17,34.2-18.5-0.8
		c-0.1-3.4,4.3-4.1,5.4-6.5C178,168.3,188.3,158.6,190.1,154.8z M215,319.6c1.3,0.1,4.3,0.4,4.3,1.7
		C218.2,320.7,215.2,320.7,215,319.6z M281.1,291.8c-26.6,39.9-88.2,40.3-104.9-16.5c-13.6-30.5,17.2-113.8,57.9-108.9
		c-40.4,22.7-46.9,66.6-38.1,106.4c1.5,6.4,4.1,15.4,9.7,18.7c-7.6-5.5-14.2-45.5-8.5-29.5c7.1,28.6,45.9,31.9,62.4,8.5
		c5.5-5.3,9.7-27.9,19.2-17.6c0.2,2.1,3.7,2.3,2.7,0.2c3.4-3.9,13,5.7,4.4,1.1C294.2,264.6,293,281.4,281.1,291.8L281.1,291.8z
		 M252.3,258.9c1.3,0.9,3.1,1,4.4,1.9c2.8,2-0.3,6.3-2.8,8.6c-37.5,30.3-53.6-2.3-54-30.8c15.8,15.3,38.5,15.6,55.1-0.4
		c-2.5,5.4-1.7,11-3.2,16.4C251.3,256.6,250.3,257.6,252.3,258.9L252.3,258.9z M303.8,293.5c0,0.6-0.9,1.5,0.7,1.6
		C302.9,299.2,302.1,294,303.8,293.5z M348.2,411.9c-5.1,10.4-45,1-22.9-3.4c3.2,3.5,7.2-1.2,10.5,0.8
		C337.6,410.9,352.7,407,348.2,411.9L348.2,411.9z M352,399.7c-3,4-0.1,8.2-7.3,6.9c-1.9-3.2-4.6,1.3-7.5,1.4c0-0.6-0.5-1.6-1.1-0.9
		c-2.6,1.8-8.6,0.5-11.2-1.4c-10.7,1.8-5.5,2-10.1-6.1c3.5,23.4-8.6-21.6-1.2-14.3c0.6,1.3,1.4-1.3,3,0.5c4,1.4,6.7-2.6,11.6-0.9
		c2.9,1.9,7.7,1.7,10.6,0c12.9-1.5,2.8,4.4,17.3-0.8C356.1,390,350.7,416.8,352,399.7L352,399.7z M353.4,375.1
		c2.9-26.4,0.2-25.1-1,0.4c-4.4,4.3-12.5,4.4-17.6,7.8c-5.3,0.5-9.2-4.4-14.8-4.7c-11.5-2.8-2.9-18.6-8.3-25.9
		c5.4,35.6-5.3,19.7-4.6-1.5c1.5,14,3.3,8.4,0.9-1.6c17.2,11.5,20.5-3.7,34.8,4.9c17.7-0.3,14.2-11.7,15.8,5.3
		C361.6,336.7,360.9,373.9,353.4,375.1L353.4,375.1z M363.8,297.1c-1.8-1.7,0.1-2-0.5-3.5C364.2,293.7,364.5,295.3,363.8,297.1z
		 M364.3,284.5c-5.3,2.3-6.4,7.9-8.9,1.3c0.5,4.4-2.6,8.2-6.8,4.9c-3.3,0.6-15.1-1.5-13.7,2.3c6-0.9,5.7,1.1,9.4,3.8
		c7.2,1.8,18.6-9.1,13.7,2.5c4.4-10.2,7.1,8.1,2,12.3c-4.4,2.1-7.9,10.5-13.1,8.4c-2.1-1-5.5,2.7-1.5,2.1c5.2-1.3,10.8-1.1,15.8-3.7
		c-3.4,8.1,7.6,24.4-7.1,26.3c-7.5,11.3-7.8-0.1-10.1,4.2c-5.1,1.2-12,3.4-17.3,1c-4.6-2.6-3.8-2-7.8,0
		c-14.7-11.7-15.1-4.1-12.1-25.3c-1.7-11,2.2-3.2,14.8-2.7c4.4,1.1,1.1-3.3-1.2-1.9c-4,2.2-6.6-3.7-9.6-5.5
		c-9-2.3-6.9-26.1-1.8-15.2c1-2.3-1.1-3.9-1.8-6.1c23.1,7.7,9.9,1.8,26.1-0.9c-6.7-5.8-22,5.6-21.5-6.4c-2.1,6.4-4.3,0.8-9.1-1.5
		c-1.8-6.2-6-15.1,1.5-19.1c0.8,2,0.9,4.6,4,5c-0.5-2.5-3.8-5-2.3-8c3.5,8,7.2,0.3,12.4,1.8c2.3,1.5,4.2,2.7,6.9,1.4
		c4-0.8,8,1.9,12,0.3c4.7-1.5,8.4,2.1,12.7-1.8c5.1-0.8,8.3,6.1,11.9-1.7c1.2,3.1-1.2,5.3-2.4,7.8c3.2-0.3,3.2-2.8,4.1-4.9
		C370.4,269,366.7,279,364.3,284.5L364.3,284.5z M349.7,292.6c-1.6,1.1-4.3,1.8-5.6,0.4C346.1,292.8,347.8,292.7,349.7,292.6z
		 M317.3,292.6c1.9,0.1,3.6,0.2,5.5,0.4C321.7,294.4,318.9,293.7,317.3,292.6z M333.5,263c1.5,0.5,1.6,1.4,0,2.1
		C331.7,264.3,332.1,263.5,333.5,263z M374.2,184c-14.2-17.3,9.8-5.2,4-11.3c-14.1-1.6-12.5,1.1-8.2,10.3
		c-1.6-1.6-15.4-7.6-11.1-0.7c26.5,21.1,13.5,54.4,9,83.9c-3.6-4-6.2-3.3-9.9-6c-2.2,0.8-4.1,2.6-6.8,3.3c-3.7,0.7-2.7-6.5-5.7-1.4
		c-0.6,0.8-0.9,0.8-1.8,0.2c-4.4,0.2-6.4,2.3-10.2-0.4c-5.1,3.1-6.1,0.2-11.8,0.3c-2.6-5-3.6,4.9-8.6,0.1c-4.6-3.8-9.7,0.9-14,4.1
		c0.6-14-7.9-25.6-6.7-39.9c0.6-7.5-2.1-16.4,2.8-22.9c1.3-1.6-0.2-2.3-1.4-0.7c-1.9-6.6,23.1-24.8,11.5-23.7
		c-11.5,5.1-6.7,3.2-4.8-5.2c-1.5-3-10.1-1.4-13-0.4c2.1,2.1,6.1,0.6,9,1.2c4.4,1.1-5.6,9.2-5.1,13.2c-0.8,3.3,2.5,9.6-1.6,11.1
		c-2.5,2.1,0,4.6-3.1,7.3c7-3.2-3.4,20.7-0.3,28.2c2.6,17.8-4.9,4-3.8,12.6c-2,6.9-4.4-5.6-7.8-1.2c-1.2,1.2-2.9-1-4.3,0.6
		c-3.9,0.4-6,2-7.2,5.5c-5.2-4.7-1.5-10.9-0.7-18.2c-0.8-5.4-3.1-12.2-1.1-17.1c0.7-0.8,0.1-1.9-1.1-1.6c-3.1,0.3-5.4-2.2-2.9-4.5
		c2.6-3.9-9.5-6.8-6.6-1.8c1.8,2.9-3.6,9.6,2.7,10.1c4.2,5.8-2.7,15.6-9,17.8c-6.9-1.6-7.1,10.1-11.7,3.1c-2.8-0.9-3,2.8-4.9,3.4
		c-1.6-0.2-3.2-0.5-4.2-1.8c-3-4.4-8.9-1-12.6-4.3c-4.2-2.7-10.6-6.5-9.1-11.9c3.1-9.5,1.3-4.1,7.1-0.5c-1.5-5.6-6.6-7.9-2.8-13.6
		c2.1-7.3,16.8-33.8,17.9-25.2c-0.7,5.4-8.8,14.5-3.6,18.5c5.9-1.5,2.2,7.6,9.4,5.7c-1,4.2,6.4,23,10.4,15
		c-2.1-5.5-11.3-12.3-6.3-18.3c2.6-4.6-3.7,0.3-5.2,0.5c-3.2-1,2.9-13.2-3.9-9.9c-1,1.3-3.7,6.6-2.9,2.4c2.9-7.4,4.5-16.5,8.3-21.8
		c-0.6,3-3.4,8.1,1.6,8.7c-0.3,2.5-1.5,6.8,2.6,6.7c2.5,0.4,3.7,3.1,7,2.7c-2,6.7,10.2,14.1,10.4,4.9c-1.9-1.5-4.7,0.4-7,0.2
		c0.6-2.4,4.9-5.9,3.6-8.1c-1.6-1.4-2.3,1.3-3.4,2.4c-1-3.4-4.3-4-2.7-7.7c-0.9-1.9-5.2-2.6-1.8-5.8c3.9-2.2,5.4-11.6-0.9-5.7
		c-0.6-10.9,22-5.7,14.4-15.8c-13.5-3.8,2.2-5.9-11.8-3.8c3-3.9,9.4-4.6,3.3-7.9c1.4-1.3,5.2-2.8,4-5c-0.9-1.6-2.1-0.5-2.9,0.6
		c-2.5,3.8-9.6,2.6-3.1,0.3c0.6-4.4,7.8-3.5,9.2-6.9c-1.4-2.9-3.3-2.3,1.4-2.8c5.4,3,3.9-5,6.5,3.5c5.7,6.5-2.7,14.8,3.8,21.1
		c8.9,6.6,0.1,6.9,6.3,10.1c4.7,0.4-2.9,11.6,5.6,10.5c1.8-2.2-4.3-6.6,1.5-6.8c6-2.6,0-6.6-4.1-6.8c15.1-8.5-0.7-7.8,1.8-13.1
		c4.7-0.6,4.6-0.3,7.1,2.4c2.8,1.2,7,4.6,8.3,0.2c-0.9,7.6,2.3,0.2,5.8,3.5c0.8,0.9,1.5,1.6,2.2,2c-0.4,0.5-0.9,1-1.3,1.5
		c3.7,0,7.5-1.2,10.7-2.8c0,1.1,0.1,2.2,0.1,3.4c4.5-2.9,9.1-5.9,13.6-8.9c0.2,1.1,0.4,2.1,0.6,3.2c2.5-1.4,5.2-2.4,8-3.1
		c0,0.4,0,0.7,0.1,1c-0.4,0.9-0.8,2.2-0.9,2.9c1.4,0.4,2-0.4,2.1-1.4c0.8,0.6,1.9,1,3.1,1.1c0.3,0.4,0.8,0.6,1.7,0.4
		c-0.1-0.1-0.1-0.3-0.2-0.5c2.5-0.4,4.9-1.7,7.4-1.8c7.3-0.3,11.2,8.8,18.3,10.5c-0.5-1.2-0.7-2.5-0.6-3.8c5,1.9,10.1,3.4,15.4,4.4
		c-1-1.9-1.9-3.8-2.9-5.7c3.4-1.5,6.6-3.5,9.3-5.9c0.1-0.1,0.3-0.2,0.4-0.3c2.2,0.1,0.8-3.1,3.3-2.6c8.1-0.4,3.8,2.4,0.1,5.7
		c-3.8,4,4.1,4.6,5.7,7.6c-1.6,0.1-4.1,2.1-5.1,0.6c-0.4,0.7-0.2,1.5-1,2.2c-3.5,4.7,7.1,2.9,4.1,7.5c-4.2,7.3,6.8,1.6,3.9-3.3
		c-4.3-4.5,8-4.1,1.7-9.8c2.3,0.4,8.6-5.9,7.4-7.7c2.6-4.4-1.5-9.6-0.4-12.8c3.2-2.2,2.2-12.1,5.9-7.6c2.1,0.6,4-1.3,6.7-0.2
		c-1.9,0.8-4,3.5-0.5,4.4c6.4,0.3,14.4,12.2,4.4,4.8c-0.7-0.9-2-2.5-3-1c-2,3.6,8.3,5.3,1.2,6.9c-0.1,2.7,4.5,3.8,5.9,6
		c-2.7,1.4-4.2-1.5-6.2-0.9c2,4.1-2.1,2.6-5.6,5.1c-7.2,10.3,15.1,4.9,14.3,15.9c-5.6-5.9-4.8,3.1-0.9,5.5c5.1,4.9-4.6,3.7-0.6,9.4
		c-5.9,3.6-1.2,4.4-7,1.9c-1.4,1.9,2.3,6,3.6,7.8c-1.6,1.2-5.4-1.7-7.1,0.1c0.8,6.6,4.6,4.4,8.5,1.9c2.1-2,1.5-6.3,3.6-7
		c2.1,0,2.8-1.4,4.2-2.4c2.1,0.2,4.2-0.6,4.1-2.9c-0.9-4.7,4.4-6.3,1.2-11.9c2.4,1.5,7.5,16.6,8.2,22.9c-1.6-1.5-2-5.3-4.8-4.9
		c-4,2.2,2.9,15.5-5.8,8.4c-1.2-1.4-3.1,0.8-1.4,1.6c6.5,6.8-7.5,13.8-5.7,20.1c8.1,2.1,8.1-15.1,11.5-16.7c3.8,0.3,4.3-3.1,4.1-5.7
		c12.7,0.9-0.1-15.9-1.3-21.9c13.1,9.3,25.3,29.4,16.6,42.2c6.1-3.6,4.6-12.3,7.1,4.2c-4.1,9.2-15.5,8.2-22.4,13.1
		c-4.6,3.3-4.2-2.3-8.2-2.2c-4,4.5-3.4,1.6-7.2-1.8c-4.7-1.8-9.5-2.7-12.4-7.6c-4.2-7.9-3.4-8.4,1.7-13.9c1.1-3.1-2.4-5.8,0.2-8.5
		c0.5-4-9.4-0.6-7.2,2.6c1.4,1.5,1.7,3.4-0.5,4.2c-1.8,0.9-5.8,0.1-2.6,3c0.5,2.2-1.4,4-0.4,6c1.1,4-2.3,7.8-1.4,11.6
		c1.3,7.3,3.7,12-0.8,17c-1.2-4.4-5.8-6.6-10.6-5.9c-3-2.3-4.9-1-6,2.3c-4.1,2.5-1.5-3.8-3.3-5.1c-7.6,5.8-0.4-25.8-5.6-33.2
		c-2.8-14.3,2.9,4,0.4-9.9C372.2,197.1,378,189.5,374.2,184L374.2,184z M367.8,185.3c10-2.4,6.2,18,4.1,6.1
		C372.3,189.3,369.1,187.3,367.8,185.3z M295.6,192.1c-4.2,9.9-5-9.2,3.4-6.9C298.6,187.8,293.2,189.6,295.6,192.1z M429.2,155.4
		c1.2,0.5,1.2,0.5,0.7,1.8C425.5,157.9,423.9,151.3,429.2,155.4z M432.3,177.4c-3.2,1.2-2.9-3.2-4.3-5.3
		C431.1,172.9,431.3,175.5,432.3,177.4z M413.6,244.5c-4.3-16.4,13.7,16.1,34.1,3.4c4.7,7.2,18.4-12.8,19.1-7.3
		c-0.5,28.9-18.1,59.3-55,27.7c-1.8-2.7-3.5-4.9-1.8-7.3C418.7,260.8,414.8,249.2,413.6,244.5L413.6,244.5z M447.5,320.8
		c1.3-0.1,3.8-1.8,4.6-0.9C450.9,320.3,448.2,321.9,447.5,320.8z M401.9,308.5c8.5,3.3-8.4-4.6-9.3-9.5c-12-11-20.1-23.7-16-39.8
		c5-0.6,5.5-5.6,0.9-4.2c3.1-1.4,4.7-4.8,8.1-1.9c0.2,4.4,3.9-2.1,5.8-3.2c15.3,6.9,11.8,29.7,38.7,35.1c21.3,8.8,38-12.6,42.2-29.7
		c-0.3,12.2-3.6,26-10.8,36.6c20.4-28.3,15.8-73.6-0.9-101c-8.5-10.4-19-19.7-31-26.6c28.6,4.1,48.8,24.6,55.6,50.2
		C512.6,266.3,470.1,352.9,401.9,308.5L401.9,308.5z M436.7,142.5c-1.2-2.7,3.5,0,4.1-3c0.7-1.1,0.3-3.6,2.3-3.3
		c4.9,2,5.9-2.8,9.6-2.9c7.9,0.3,37.9,35.5,28.8,31.1c-4.2-1,7.1,3.9,4.2,13.3c-2.2,31.5-1.3-11.8-48.6-18.8
		c1.9-3.1-3.8-4.6-3.5-11.6C436.6,146.9,437.5,145.2,436.7,142.5L436.7,142.5z M491.8,202.2c-9.6-4.2-4.2-17.2-3.8-26.2
		c4.8,5.4-0.5-2.6-0.2-5.8c-1.1-11.5-11.7-19.2-17.5-28.5c-8.8-13.2-21-15-35.1-9.2c-8.6,4.3,2.6-4.8,7.1-2.5
		c4.6-4.6-14.2-0.4-12.5,3.2c2,2.6-0.6,2.1-1.2,4.2c0.4,4.6,5.7,4,0.2,6.7c-14.7-13-7.9-6.4-3.2-11.2c3.2-4.1-4.5-4.7-4.9-8.8
		c-4.1-7.1,15-0.1,4.9-9.3c-3-1.7-9-0.2-8.3-5c-0.5-10.4-0.9-14.6,10.2-7.2c-4.5,1.4-0.9,3.3,2.1,3.2c18.5-0.7,35.1-1.3,47.5,13.4
		c1.1,0.6,0.2,2,1.3,2.6c9.6,0,20.1,16.6,22.5,22.2c-5.4-0.2-4.8,2.8-12.1,0.9C502,166.2,503.7,180.2,491.8,202.2L491.8,202.2z"/>
	<path d="M310.5,74.3c-0.3-1.4-0.8-2.7-2.3-3.3c-13.6-7.2,4.3-5.9,9-0.4c6.7-1.2-9.5-8.6-12.3-7.9C290.1,62.6,308.3,78,310.5,74.3
		L310.5,74.3z"/>
	<path d="M349.7,70.6c11.2-6.2,21.7-9.2,6.8,3.7c3.3,3.5,20.2-12,4.9-11.6C359.5,62,343.1,69.1,349.7,70.6z"/>
	<path d="M389.6,234.9c-4.5-10.1-0.7,2-5.2,3.2c-3.8,2.4,4,0.7,3.4-2.2c3.4,2.2,5.1-0.6,5.7-3.5c1.1,2.2,4.1,3,5.9,1.1
		c2.9-1.6,0.9-9.8-1.3-5.6c1,0.9,0.4,3.4-0.5,4.2c-5.1,1.8-2.5-4.1-4.6-4.4C390.7,227.7,392.4,233.3,389.6,234.9L389.6,234.9z"/>
	<path d="M277.5,234.7c-1.9-0.8-2.6-4.9-2.5-6.8c-2.2-2.1-2.5,2.2-1.7,3.8c-1.6-0.9-1.7,0.9-3.1,0.8c-3.9-0.2,0.3-8.9-3.9-4.9
		c-2.2,4.3,3.8,10.2,7,4.9c0.6,3,2.3,5.2,5.8,3.7c0.4,1.9,2.4,3.2,4.8,3.1C278,238,282,224.4,277.5,234.7L277.5,234.7z"/>
	<path d="M381.7,116.6c3.5-4.5-6-12.6-8.1-17.5C364.2,90.3,380.1,114.6,381.7,116.6z"/>
	<path d="M294.3,97.6c-2.7,5.2-12.3,13.9-9.1,18.9C286.4,114,301.6,94.4,294.3,97.6z"/>
	<path d="M305.6,117.8c-3.4,0.3-2.7,5.5-3.3-0.4c-3.8-5-4,10.1,0.7,8.8c2.4-0.3,1.6-4.1,2.2-5.9c0.7,1.1,1.4,4.2,3.8,2.8
		C306.3,122.2,307.5,119.3,305.6,117.8z"/>
	<path d="M365.9,116.3c-2.5-0.1-0.6,4.8-1.9,4.3c-0.5-1.2-1-2.9-2.8-2.7c-1.7,1.5-0.8,4.4-3.3,5.4c2,1.2,3.4-1.2,3.5-2.9
		C362.8,133.9,371,120.5,365.9,116.3L365.9,116.3z"/>
	<path d="M351.7,225.7c-0.2-0.9-2.6-3.2-1.8-1.3c1.7,6.1-2.7,0.5-3.6,1.8c-1.5,1.6-4.9-1.1-6.9-0.1c1.5,1.3,4.1,1.1,6.2,1.9
		c-2.9,3.3-3.8,8.1,0.8,2.4C349.3,233.3,355.1,228.4,351.7,225.7L351.7,225.7z M347.3,228.8c0.3-0.8,0.8-0.9,2-0.4
		C348.6,229.4,348.5,229.4,347.3,228.8z"/>
	<path d="M326.8,225.9c-2.5,0.2-5.1,1.7-7.2-0.2c-1.5,3.7-4.2,0.2-2.1-1.9c-5.8,1.3-2.2,10.6,3.1,6.6c3.8,5.1,3.8,0.8,0.8-2.3
		C322.6,227.1,328.9,226.9,326.8,225.9L326.8,225.9z M317.6,228.4c1.3-0.4,1.8-0.3,2.1,0.4C318.8,229.4,318.1,229.2,317.6,228.4z"/>
	<path d="M350,127.8c4.3,0.1,4.3-7.9,5.2-10.8C353.9,109.1,348.9,126.2,350,127.8z"/>
	<path d="M312.7,114.8c-3.1,2.2,3,18,4.6,11.2C315.1,122.8,316.1,116.4,312.7,114.8z"/>
	<path d="M358.8,78.2c8.3-3.7,14.5,3.1,19.6,7.4C377.4,78.8,364.5,72,358.8,78.2z"/>
	<path d="M308.3,78c-5.1-5.7-19.1,0.5-19.6,7.5C293.7,80.7,299.9,74.9,308.3,78z"/>
	<path d="M298.4,220.9c-3.7,2.2,8.1,6.3,2.2,6.7c2.1,0.9,3.9,1.3,5.2,3.4c3,2.5,3.6-1.7,5.9-2.2c-0.8-0.4-2-1.1-3-1.6
		C302.9,232.3,302.2,221.1,298.4,220.9L298.4,220.9z"/>
	<path d="M366,228.1c-3.5-2.6,2.5-2.6,3.2-6.4c-3.7-3.4-4.4,9.3-9.7,6.4c-1.6-1.5-2.7-0.1-4.4,0.7
		C361.9,234.9,359.7,229.1,366,228.1z"/>
	<path d="M383.3,98.7c3.5-2.6-7-9.5-10.5-10.9C367,87.8,382.2,95.5,383.3,98.7z"/>
	<path d="M283.4,99c3.8-4,7.8-7.6,12.8-10.3C293.2,85.5,280,96.5,283.4,99z"/>
	<path d="M284.2,219.9c-2.9-6.9-6.3-13.8-6.7-21.5C275.1,204.6,279.1,214.9,284.2,219.9z"/>
	<path d="M382.9,219.9c4.5-5,7.2-12.1,7.4-18.7C390.6,193,385.3,217.1,382.9,219.9z"/>
	<path d="M240.8,220.8c-1.3,1.1,3.3,5.8,4.5,8C250.7,230.1,244.1,220.7,240.8,220.8z"/>
	<path d="M422.2,228.5c0.6-2.5,5.5-6.6,4.1-7.7C422.7,220.4,415.9,231.1,422.2,228.5z"/>
	<path d="M274.3,208.9c-2.8-2.2-1-11.9-5.2-10.4C269.6,201.1,271.6,212.5,274.3,208.9z"/>
	<path d="M397.8,198.5c-3.9-1.3-2.1,8.4-5.1,10.4C395.6,212.5,397.1,201.2,397.8,198.5z"/>
	<path d="M328.5,227.3c-12.5,2.2,10.9,1.9,14.6,1.4C338.8,225.6,333.3,229.6,328.5,227.3z"/>
	<path d="M264.8,190.1c2.3,4.1-4.5,12.2,0.7,12.8C266.1,198.6,267.6,193.8,264.8,190.1z"/>
	<path d="M404,202.4c-1.2-4-2.6-7.8-1.9-12C400.2,192.5,399.1,204.2,404,202.4z"/>
	<path d="M224.6,226.1c-2.4-0.2-1.8,3.3-5-2.2c1.9-2.6-2.8-1.1-1.4,0.7c1.1,1.4,7.1,8.9,6.6,6C222.4,229.1,223.9,227.9,224.6,226.1
		L224.6,226.1z"/>
	<path d="M448.4,222.9c-1.1-1.2-2.3-0.1-1,1c-2.2,5.7-5.3,0.3-4.6,3.2c1.7,2.3,0.1,2.4-1,4.4C443.7,231,450.5,224.7,448.4,222.9z"/>
	<path d="M454,222.2c-2.4-1.2-2.2,4-3.4,5.3C453.4,227.8,453.3,224,454,222.2z"/>
	<path d="M212.9,222.2c0.7,1.6,0.8,6.1,3.5,5.1C215.1,226.1,215.3,221,212.9,222.2z"/>
	<path d="M380.4,261.4c-4.1-4.3-2.9,9-2,11.1c2.5-4.5-0.6-7.1,3.3-11C382.1,257.7,380.2,257.4,380.4,261.4z"/>
	<path d="M393.5,252.8c0.4,2.2,1.1,3.9,0.2,5.9c0.6,1.2,2.7,3.4,3.6,1.3C396.5,258.3,395.5,250.2,393.5,252.8L393.5,252.8z"/>
	<path d="M389.1,253.8c-0.1,1.5,1.5,14.3,2.9,7.5C391.4,259,392,255.3,389.1,253.8z"/>
	<path d="M456.5,300.2c1.2,2.6,6.2-3.7,7-5.6C460.6,294.7,459.1,298.8,456.5,300.2z"/>
	<path d="M454.3,297.8c-3.8,2.5-8.3,7.8-13.6,10C446.4,305.9,451,302.6,454.3,297.8z"/>
	<path d="M386.8,262.8c-1.2-2.1-1.3-4.4-2.7-6.2C382.4,257.8,385,265.8,386.8,262.8z"/>
	<path d="M469.7,281.9c-2.3,2.4-4.6,6-5.3,9.2C466.6,289,468.8,284.9,469.7,281.9z"/>
	<path d="M400.3,262.7c1.2,1.3,2.3,2.6,3.4,3.8C403,263.4,400.7,262.5,400.3,262.7z"/>
	<path d="M433.7,308.6c0.3,1.1,2.3-0.5,3.3-0.5C436.6,307.2,434.6,308.5,433.7,308.6z"/>
	<path d="M285.7,263.1c4,0.7,0,7,2.8,9.4c1.1-2,2-15.6-1.7-11.1C286.2,255.7,284.2,259.6,285.7,263.1L285.7,263.1z"/>
	<path d="M271,260.8c3.9-1.6,0.9-5.1,2.6-8.2C271.8,250.2,268.1,260.9,271,260.8z"/>
	<path d="M275,261.5c2.1,5.6,1.9-5.1,3.1-6.7C276.4,251.6,275,259.9,275,261.5z"/>
	<path d="M204.5,294.5c-2.1,1.4,3.6,5.8,5.7,6.7C211.3,299.2,205.6,296.7,204.5,294.5z"/>
	<path d="M213,297.5c1.9,4.9,8,8.3,13.3,10.2C221,305.2,216.8,301.7,213,297.5z"/>
	<path d="M281.1,263.9c1.9-1.3,1.7-4,2.7-5.9C282.6,254.4,279.8,262.6,281.1,263.9z"/>
	<path d="M197.3,282.7c1.9,2,3.1,7.9,5.5,8C201.5,288.8,198.4,281,197.3,282.7z"/>
	<path d="M262.9,266.2c0.9,0.4,3.5-2.9,3.5-3.6C264.3,263,264.3,265.3,262.9,266.2z"/>
	<path d="M230.1,307.7c0.1,0.9,2.1,1.2,3,1.3C233.5,308,230.9,308.1,230.1,307.7z"/>
	<path d="M330.5,323.9h6C335.1,321,331.9,321,330.5,323.9z"/>
	<path d="M314.4,397.9c1-1,0.6-4.3-0.7-6.1C313,393.1,314.4,395.9,314.4,397.9z"/>
	<path d="M353.3,391.8c-1.2,1.6-1.7,5.1-0.7,6.1C352.6,395.8,353.9,393.1,353.3,391.8z"/>
</g>
<g>
	<text transform="matrix(1 0 0 1 12.5984 234.5508)" class="st1 st2 st3">301</text>
</g>
<g>
	<text transform="matrix(1 0 0 1 525.4574 234.551)" class="st1 st2 st3">RIP</text>
</g>
</svg>
