<svg id="Layer_1" data-name="Layer 1" xmlns="http://www.w3.org/2000/svg" viewBox="0 0 360 393"><path d="M528.16,326.92c12.07-11.76,13.87-30.46,6.24-44.8,5.4-.09,6.85-5.59,4.54-9.4-13.19-21-35.14-53.12-64.56-46.57-7.91.76-14.82-.2-21.52-4.4,3.52.17,7.53,0,8.24-3.75.61-6.76-6.05-12.61-10.83-17.14,3.2-1.58,3.36-6.55,1.09-8.5-3.42-4.56-11.59-5.26-14.86-7.83a4.19,4.19,0,0,0-1-6.69c-17.11-8.6-44.17-2.75-56.35-14.05-7.87-1.13-13.84,1.08-19.09,6.43-5.26-5.51-11.22-7.4-19.09-6.43-4.86,12.24-64.54,3.33-57.32,21.26-7,1.31-22.27,7.71-14.15,15.63-3.32,4.5-10.52,9.64-10.65,16.24.12,4.37,4.33,5.19,8.26,4.82-7.19,4.46-17.17,6.66-25,2.84-29.36.52-49.39,27.66-61.77,50.17-1.09,3.88.6,6.79,5,7.3-4.24,9.36-5.65,22.85-1.8,33.28a103.92,103.92,0,0,0,16.18,19.54c1.47,17.19-13.44,36.19-8.12,55,1.15,65.88,74.38,89.84,119.84,40.47,13.66-13.2,8.19-6.67,11.19,7.22-.77,24.39,1.84,48.88,4.89,73,4.38,15.05,3.17,37.42,22.6,42.59,8.58,5,11.81,4,20.17,0,15.55-4.48,19.23-22.15,20.36-35.68,7-27.63,6-56.59,7.47-84.83-.13-21.05,6.84-2.56,18.35,4.43,37.56,36.58,102.38,19.57,109.87-32.17C539,365.65,507.06,341.58,528.16,326.92ZM421.24,184.52c-5,4.27-9.47-3.32-15.21-5.77C410.83,180.45,428,182.82,421.24,184.52Zm-106.73-6c-4.92,2.49-8.23,6-13.41,8.12-.38-1.69-.51-1.74-2.29-2.14C291.76,182.71,310.84,180.24,314.51,178.55Zm-33.33,18c-4.68-2,12.62-5.13,15.92-6,14.4-6.82,26.78-18.13,44.15-13.38,2.33.81,3.42-1.3,5.36-1.48,1,.33,5.81,2.35,4.29.73-12.26-6.33-1.25-9.69,4.37-.23,8,7.08,12.18-7.31,19.53-6.14-.25,4.28-3,5.09-6.23,7.06,5.36-2.1,5.28-.5,10.14.08,7.22-1.14,17-1.74,23,1.84,12.56,8.63,25.83,12,39.16,17.14-14.19-.08,5.36,11.63,6.5,18.45-2.35-1-7.79-4-7,.44,4.67,5.88-1.93,7.65-1.13,13.82-5.13-8.93-3.9-22.33-15.08-27.1,8.05,5.19,7.7,13.7,10.44,21.69,6.43,12.7,1,27.13,13.9,36.67-12.6,2.25-12.68-4.76-19.42-11.35-4.66,1,3.19,6.79,1.23,10.09,1.87,7.1-9,16.19-9.53,5.38-7.26-10.07-1.06,8.14-9.15,13.1,1.68-1.89,4.17-23.81-1.07-16.87,0,1.29-.7-.35-1.07-.73-1.27,2.25,2.1,4.9.15,7.48-4-3.66,1.7,4.06-.71,8.45-5.65-16.33-3.79,3.79-6.73-7.15-2.23-2-1,2.64-.95,3.84,0,6.15-4.45,11.95-9.85,15.17-1.45-3.83-.19-10.43-3.7-12.49-.85,1.92-.86,5.8,0,9.1-.12.3-.24.61-.38.91a45,45,0,0,1-6.33-10v.08c-1.34-4.87-2.22-9.13-3.7-5.9.05,2.37,1.33,6.84,3.09,10.39l-.08.62c-.46-.32-.9-.66-1.34-1a10.86,10.86,0,0,0-2.24-2.45c-.93-1.69-3.16-12.34-4.81-7.22,1.58,6.78-1.37,5.95-4.91,8.39-2.16-2.63-1.06-7.27-3.63-8.62-1.5,0-1.33,1.49-1.31,2.49-1.41-1.32.12-3.08-1-4.45-3.67-1.23-1.45,3-2.73,4.46.35-2.26-2.47-3.87-2.79-.94.12,4.26-2,6.13-4,6.06a8.34,8.34,0,0,1-3.34-2.81,7.77,7.77,0,0,1,.12-4.61c-1.59-4.71-3.66,4.49-4.79,7.15a2.65,2.65,0,0,1-1.71-1.42c1.45-3.95,1.64-7.48-.87-7.07a35.24,35.24,0,0,1-2.69,10.62,23.8,23.8,0,0,1-2.37,2.11L334.44,275c-.48,1.07-.95,2.06-1.42,3a9.56,9.56,0,0,0-.64-3c-2.66,1.35-2.54,5.51-3,9-.64.89-1.31,1.77-2,2.67-6.89-3.9-8.72-12.07-8.51-18.94-5.82,12.25-.84-9.82-7.71,7.63-2.08-3.18,2.61-11.85-.42-8.24-2.45-1.85,1.24-5.86-.12-7.42-1.76,3-.21-1.12-2.48-.81-1.48.3-3.35,10.85-1.48,11.15,2.27,7.34,1.4,8.37-2.23,1-1.54-2.21-.71-15-1.52-8.81-1.39-1-3.18-.62-3.5,1.24-3.56,15.81-14.48-4.25-6.91-14.44-7.84.5-3.81,11.69-17.28,11.51-8.88.8,7-8.58,5.44-14.34,2-13.53,4.09-33.63,15.17-44.6C284.7,207,286.17,219.74,280.68,229c-.23-2.5,1.09-7-2.78-6.95,7.41-21.42-17.06,5.36,6.73-23.21C285.54,196.48,283.3,195.61,281.18,196.51Zm162.3,46.43c3.21,1.11,8.72-.33,9.69,3.25C449.69,246.48,443.92,247.25,443.48,242.94ZM404.7,275.05c1.05,1.87,2.39,3.46,3,5.67C405.57,279.53,404.25,277,404.7,275.05Zm-30.88,1.58-.11,1a3.75,3.75,0,0,0-.85-.25Zm-53.36,6.54c-.5.23-2.12-2.2-1.47-2.43Zm-7.94-2.68c.51-2,1.76-3.58,2.81-5.4C315.85,276.9,314.62,279.36,312.52,280.49Zm-45.58-34.26c.93-3.6,6.48-2.06,9.6-3.35C276.32,247.27,270.38,246.44,266.94,246.23Zm-72.37,55.46c.25-2.76,6.16-31.06,10.29-28.78-2-1.13-4.15.6-6.28.73-2.59-1.32-3.67-3-7-1.51,9.85-18,25.5-24.33,40.43-37.32,12.24-3.7,34.53,3.41,36.79-5.82,9.75-8.69,8.36,5.67,6.62,11.35-3.58.85-13.21,3.07-9.34,7.67,14.73-.52,3.48,5.79,1.07,11.1.79,1.68,2,4.24,4.53,3.48,6-.48-4.85,5.76-4.93,8.8-7.82-.27-3.87-1.39-1.91-5.54-3.57-5.56,1-4.76-2-7-3-1.32-11.69-6.39-12.44-1.39,2.82-.32,13.15,1.81,10.5,4.62a26.23,26.23,0,0,0-38.06,7.8c-7.15,10.09-17.23,19.15-18.19,32.21-.26,1.33-1.34,2.46-1.44,3.82,4.29-5.78,2.1,8,4.39,11.51,2.58,4-1.49,13.36-7.09,9.58C192.76,321.79,193.89,309.33,194.57,301.69Zm68.85-17.59c.53-1.65,3.28-1.93,4.65-2.92C267.46,282.9,265.56,286.87,263.42,284.1Zm2.11,15.69q-1.2,2.86-2.35,5.6C259.68,305.51,262.76,300.43,265.53,299.79Zm-48.89-17.35c1.51-3.73,13.62-9.83,4.77-6.81,6-5.05,13.71-15.94,22.38-13.85.58,2,1.11,2.39,3.65,2.31,6.33-2.31,3.62,6.16,9.56,4.59-2.46,5.19,3.94,5.1,2.48,8.8-1.32,14.21-22.72,11.37-33.09,21.73-17.76,9.2-17,34.26-18.53-.84-.07-3.4,4.31-4.12,5.45-6.51C204.53,296,214.85,286.25,216.64,282.44ZM241.56,447.3c1.35.08,4.29.39,4.34,1.71C244.72,448.36,241.76,448.4,241.56,447.3Zm66-27.83c-26.55,39.86-88.21,40.3-104.87-16.52C189.08,372.46,219.94,289.12,260.6,294c-40.41,22.73-46.85,66.59-38.11,106.42,1.45,6.36,4.14,15.37,9.7,18.7-7.59-5.55-14.17-45.49-8.54-29.51,7.12,28.62,45.88,31.85,62.4,8.53,5.47-5.34,9.68-27.85,19.19-17.61.16,2.12,3.68,2.26,2.68.19,3.35-3.86,13,5.7,4.43,1C320.76,392.27,319.55,409.07,307.6,419.47ZM278.85,386.6c1.31.87,3.06,1,4.37,1.93,2.77,2-.3,6.32-2.78,8.62-37.46,30.34-53.55-2.27-54-30.8C242.28,381.63,265,382,281.56,366c-2.48,5.35-1.7,11-3.25,16.42C277.79,384.21,276.85,385.27,278.85,386.6Zm51.42,34.57c0,.6-.9,1.5.72,1.56C329.39,426.84,328.58,421.68,330.27,421.17Zm44.4,118.35c-5.11,10.36-45,1-22.93-3.37,3.24,3.45,7.18-1.2,10.52.82C364.12,538.57,379.19,534.67,374.67,539.52Zm3.89-12.2c-3,4-.15,8.23-7.31,6.94-1.89-3.2-4.58,1.26-7.46,1.36,0-.63-.51-1.58-1.12-.85-2.62,1.81-8.64.55-11.2-1.4-10.74,1.79-5.51,2-10.06-6.13,3.49,23.37-8.59-21.61-1.22-14.27.65,1.28,1.36-1.3,3,.52,4,1.42,6.67-2.57,11.57-.89,2.91,1.9,7.69,1.72,10.62,0,12.85-1.47,2.84,4.36,17.26-.78C382.59,517.69,377.2,544.42,378.56,527.32Zm1.34-24.6c2.89-26.38.23-25.12-.94.38-4.41,4.27-12.54,4.43-17.6,7.83-5.34.51-9.16-4.38-14.84-4.72-11.49-2.84-2.86-18.6-8.27-25.91,5.39,35.59-5.31,19.67-4.57-1.48,1.54,14,3.26,8.4.9-1.64,17.24,11.54,20.55-3.7,34.81,4.85,17.69-.33,14.25-11.73,15.8,5.32C388.11,464.35,387.38,501.59,379.9,502.72Zm10.39-78c-1.75-1.73.13-2-.51-3.53C390.76,421.35,391,422.92,390.29,424.75Zm.5-12.61c-5.26,2.29-6.38,7.85-9,1.31.46,4.44-2.57,8.24-6.79,4.88-3.25.6-15.08-1.45-13.73,2.26,6-.91,5.68,1.15,9.39,3.79,7.22,1.77,18.58-9.15,13.72,2.48,4.43-10.19,7.14,8.14,2,12.3-4.42,2.09-7.92,10.51-13.15,8.37-2.07-1-5.5,2.74-1.52,2.1,5.26-1.3,10.76-1.14,15.78-3.68-3.38,8.14,7.59,24.38-7.06,26.3-7.5,11.34-7.76-.12-10.13,4.2-5.08,1.25-12,3.36-17.26,1-4.65-2.63-3.8-2.05-7.83,0-14.71-11.7-15.11-4.07-12.15-25.28-1.72-11,2.19-3.19,14.77-2.68,4.41,1.14,1.07-3.32-1.22-1.94-4,2.24-6.64-3.68-9.55-5.48-9-2.32-6.87-26.07-1.79-15.19,1-2.26-1.1-3.9-1.84-6.14,23.12,7.7,9.9,1.77,26.12-.89-6.67-5.8-22,5.56-21.51-6.36-2.07,6.37-4.31.81-9.12-1.52-1.83-6.16-6-15.1,1.46-19.1.84,2,.87,4.59,4,5-.48-2.5-3.81-5-2.33-7.95,3.51,8,7.18.27,12.39,1.76,2.27,1.55,4.23,2.66,6.93,1.38,4-.82,8,1.9,12,.33,4.74-1.55,8.38,2.06,12.68-1.82,5.1-.81,8.33,6.12,11.9-1.7,1.2,3.07-1.23,5.26-2.44,7.83,3.2-.29,3.24-2.79,4.07-4.86C397,396.65,393.23,406.62,390.79,412.14Zm-14.6,8.12c-1.6,1.08-4.32,1.78-5.59.37Zm-32.32,0,5.53.36C348.23,422.05,345.42,421.32,343.87,420.26Zm16.2-29.64c1.48.48,1.61,1.35,0,2.07C358.27,391.94,358.59,391.14,360.07,390.62Zm40.63-79c-14.2-17.31,9.82-5.24,4-11.29-14.14-1.6-12.55,1.12-8.22,10.27-1.64-1.64-15.42-7.55-11.15-.66,26.49,21.11,13.45,54.39,9,83.91-3.59-4-6.18-3.26-9.87-6-2.22.82-4.06,2.58-6.82,3.32-3.69.72-2.67-6.47-5.69-1.43-.65.76-.94.77-1.77.16-4.42.24-6.44,2.28-10.18-.37-5.14,3.14-6.06.17-11.79.29-2.58-5.06-3.64,4.93-8.65.07-4.55-3.84-9.7.9-14,4.08.62-14-7.9-25.6-6.72-39.9.59-7.53-2.07-16.39,2.78-22.93,1.31-1.58-.2-2.26-1.38-.69-1.9-6.62,23.15-24.83,11.46-23.67-11.49,5.06-6.68,3.17-4.76-5.25-1.48-3-10.11-1.39-13-.45,2.11,2.06,6.14.65,9,1.18,4.42,1.08-5.66,9.2-5.09,13.2-.84,3.33,2.53,9.61-1.55,11.12-2.46,2.07,0,4.62-3.11,7.3,7-3.2-3.45,20.69-.34,28.22,2.62,17.83-4.85,4-3.75,12.58-2,6.93-4.36-5.61-7.78-1.2-1.16,1.25-2.93-1-4.29.65-3.87.44-6,2-7.25,5.46-5.2-4.74-1.45-10.86-.71-18.22-.75-5.4-3.1-12.16-1.07-17.11.74-.76.06-1.87-1.08-1.65-3.07.33-5.41-2.24-2.91-4.52,2.56-3.93-9.48-6.78-6.63-1.79,1.83,2.91-3.6,9.62,2.68,10.07,4.18,5.78-2.72,15.64-9,17.8-6.92-1.59-7.06,10.11-11.73,3.09-2.81-.9-3,2.76-4.86,3.42-1.6-.18-3.2-.54-4.2-1.84-3-4.39-8.92-1-12.55-4.33-4.2-2.74-10.59-6.52-9.05-11.85,3.07-9.48,1.3-4.07,7.07-.52-1.49-5.64-6.6-7.87-2.84-13.64,2.11-7.28,16.81-33.79,17.92-25.25-.73,5.38-8.82,14.48-3.58,18.51,5.93-1.47,2.24,7.61,9.36,5.69-1,4.17,6.38,23,10.42,15-2.13-5.52-11.29-12.31-6.28-18.3,2.62-4.59-3.72.33-5.21.47-3.21-1,2.89-13.2-3.89-9.91-1.05,1.3-3.73,6.57-2.88,2.38,2.91-7.37,4.54-16.48,8.29-21.79-.56,3-3.41,8.08,1.58,8.74-.34,2.51-1.48,6.78,2.62,6.73,2.5.43,3.73,3,7,2.71-2,6.68,10.19,14.12,10.44,4.87-1.84-1.52-4.73.44-7,.25.55-2.46,4.86-5.88,3.56-8.14-1.6-1.41-2.29,1.32-3.4,2.38-1-3.38-4.31-4-2.72-7.66-.95-1.91-5.19-2.56-1.81-5.83,3.93-2.24,5.45-11.61-.88-5.73-.64-10.88,22-5.66,14.4-15.84-13.53-3.84,2.18-5.88-11.82-3.84,3-3.91,9.37-4.57,3.32-7.89,1.41-1.32,5.2-2.78,4-5-.94-1.61-2.08-.46-2.86.63-2.5,3.8-9.57,2.56-3.13.29.65-4.41,7.85-3.51,9.21-6.9-1.36-2.87-3.3-2.28,1.35-2.84,5.36,3,3.91-5,6.48,3.52,5.67,6.5-2.67,14.83,3.78,21.06,8.85,6.58.1,6.91,6.26,10.12,4.72.43-2.87,11.58,5.57,10.48,1.82-2.17-4.34-6.55,1.47-6.81,6-2.64,0-6.61-4.14-6.76,15.09-8.49-.72-7.83,1.81-13.14,4.71-.6,4.59-.34,7.1,2.35,2.8,1.23,7,4.64,8.34.25-.88,7.63,2.34.21,5.76,3.52a10.58,10.58,0,0,0,2.19,2l-1.34,1.53A25.63,25.63,0,0,0,335,287.56l.15,3.35L348.77,282c.2,1.06.41,2.12.61,3.18a28.21,28.21,0,0,1,8-3.06,2.43,2.43,0,0,0,.15,1,13.64,13.64,0,0,0-.93,2.88c1.38.39,2-.43,2.08-1.45a6.13,6.13,0,0,0,3.07,1.06,1.51,1.51,0,0,0,1.69.41,4.7,4.7,0,0,1-.18-.47c2.52-.39,4.85-1.67,7.4-1.77,7.33-.27,11.23,8.76,18.34,10.48a9.46,9.46,0,0,1-.64-3.79,98.65,98.65,0,0,0,15.36,4.45c-1-1.9-1.94-3.81-2.92-5.71a33.85,33.85,0,0,0,9.3-5.92l.44-.27c2.17.14.81-3.07,3.29-2.6,8.1-.34,3.82,2.37.06,5.71-3.76,4,4.07,4.59,5.74,7.64-1.62.06-4.07,2.08-5.07.61-.44.71-.19,1.52-1,2.16-3.49,4.73,7.08,2.89,4.06,7.45-4.21,7.28,6.79,1.59,3.85-3.28-4.32-4.46,8-4.08,1.73-9.83,2.25.42,8.57-5.92,7.39-7.66,2.56-4.39-1.47-9.66-.39-12.82,3.16-2.2,2.23-12.1,5.85-7.62,2.08.61,4.05-1.28,6.7-.19-1.91.77-3.95,3.51-.45,4.37,6.42.3,14.42,12.23,4.41,4.83-.7-.95-2-2.53-3-1-2,3.61,8.3,5.32,1.25,6.9-.14,2.67,4.52,3.75,5.9,6-2.66,1.35-4.21-1.51-6.23-.94,2,4.09-2.1,2.54-5.57,5.05-7.18,10.34,15.15,4.84,14.32,15.86-5.58-5.95-4.81,3.1-.93,5.47,5.09,4.93-4.65,3.68-.58,9.39-5.86,3.57-1.19,4.38-7,1.87-1.41,1.91,2.34,6,3.63,7.84-1.58,1.21-5.37-1.71-7.12.11.79,6.56,4.61,4.35,8.47,1.89,2.09-2,1.56-6.27,3.65-7,2.08.05,2.83-1.44,4.23-2.42,2.1.17,4.23-.6,4.1-2.85-.85-4.71,4.39-6.31,1.25-11.93,2.43,1.53,7.47,16.65,8.16,22.95-1.61-1.48-2-5.31-4.83-4.85-4,2.23,2.93,15.54-5.83,8.39-1.25-1.38-3.1.82-1.35,1.56,6.48,6.77-7.52,13.8-5.74,20.15,8.09,2.07,8.11-15.11,11.46-16.66,3.81.34,4.29-3.05,4.07-5.73,12.68.86-.07-15.93-1.32-21.89,13.1,9.27,25.28,29.43,16.6,42.23,6.12-3.63,4.6-12.3,7.05,4.2-4.13,9.16-15.46,8.23-22.39,13.13-4.56,3.34-4.23-2.31-8.16-2.25-4,4.48-3.36,1.62-7.19-1.84-4.73-1.82-9.45-2.69-12.35-7.59-4.19-7.92-3.38-8.44,1.7-13.87,1.11-3.13-2.38-5.81.21-8.49.46-4-9.4-.6-7.2,2.57,1.43,1.5,1.74,3.45-.46,4.19-1.77.89-5.81.12-2.63,3,.54,2.17-1.38,4-.43,6,1.11,4-2.31,7.76-1.36,11.65,1.28,7.33,3.74,12-.77,17-1.23-4.43-5.77-6.63-10.6-5.95-3-2.28-4.89-1-6,2.34-4.12,2.46-1.45-3.78-3.32-5.06-7.64,5.77-.4-25.83-5.64-33.21-2.79-14.27,2.92,4,.34-10C398.75,324.71,404.54,317.13,400.7,311.65Zm-6.35,1.28c9.95-2.42,6.21,18,4.14,6.08C398.86,316.91,395.63,314.91,394.35,312.93Zm-72.25,6.81c-4.24,9.86-5-9.19,3.35-6.91C325.11,315.43,319.75,317.21,322.1,319.74ZM455.69,283c1.18.51,1.22.54.71,1.79C452,285.52,450.47,278.92,455.69,283Zm3.11,22c-3.21,1.22-2.86-3.2-4.28-5.25C457.58,300.53,457.78,303.13,458.8,305.05Zm-18.69,67.08c-4.33-16.36,13.7,16.12,34.11,3.39,4.73,7.16,18.37-12.75,19.13-7.27-.5,28.88-18.12,59.34-55,27.73-1.76-2.73-3.53-4.85-1.82-7.3C445.22,388.45,441.31,376.8,440.11,372.13ZM474,448.42c1.34-.1,3.84-1.82,4.59-.92C477.4,448,474.68,449.57,474,448.42Zm-45.55-12.26c8.45,3.26-8.39-4.56-9.29-9.51-12-11-20.12-23.75-16-39.79,5-.61,5.49-5.56.86-4.2,3.12-1.35,4.67-4.83,8.11-1.9.25,4.4,3.88-2.06,5.83-3.21,15.29,6.9,11.81,29.66,38.65,35.11,21.31,8.81,38-12.56,42.19-29.73-.27,12.2-3.63,26-10.84,36.6,20.44-28.33,15.82-73.63-.87-101a111.45,111.45,0,0,0-31-26.56c28.59,4.12,48.77,24.59,55.61,50.15C539.07,394,496.61,480.52,428.42,436.16Zm34.82-166c-1.18-2.69,3.53,0,4.06-3,.75-1.1.32-3.62,2.28-3.29,4.92,2,5.92-2.78,9.62-2.92,7.92.34,37.95,35.51,28.83,31.09-4.23-1,7.11,3.87,4.16,13.26-2.16,31.49-1.31-11.83-48.63-18.81,1.9-3.09-3.85-4.56-3.53-11.6C463.09,274.54,464,272.86,463.24,270.15Zm55.08,59.72c-9.62-4.22-4.21-17.24-3.76-26.17,4.77,5.43-.52-2.65-.25-5.78-1.12-11.53-11.7-19.26-17.45-28.48-8.83-13.18-21-15-35.09-9.2-8.58,4.29,2.58-4.76,7.06-2.54,4.64-4.63-14.19-.42-12.52,3.23,1.95,2.59-.64,2.15-1.18,4.24.37,4.64,5.68,4,.2,6.71-14.66-13-7.94-6.37-3.23-11.24,3.21-4.06-4.55-4.67-4.9-8.83-4.08-7.06,15-.05,4.88-9.32-2.95-1.74-9-.17-8.3-5-.47-10.39-.87-14.6,10.2-7.21-4.55,1.42-.93,3.3,2.06,3.24,18.47-.72,35.07-1.28,47.51,13.45,1.1.56.24,2,1.3,2.64,9.64,0,20.13,16.6,22.53,22.17-5.38-.19-4.84,2.75-12.09.88C528.5,293.83,530.23,307.92,518.32,329.87Z" transform="translate(-180 -163.5)"/><path d="M337,202a4.33,4.33,0,0,0-2.31-3.35c-13.62-7.25,4.28-5.91,9-.43,6.72-1.23-9.54-8.63-12.29-7.93C316.6,190.25,334.82,205.61,337,202Z" transform="translate(-180 -163.5)"/><path d="M376.24,198.19C387.46,192,398,189,383,201.94c3.31,3.46,20.24-12,4.94-11.61C386.07,189.66,369.64,196.77,376.24,198.19Z" transform="translate(-180 -163.5)"/><path d="M416.15,362.58c-4.52-10.09-.66,2-5.23,3.2-3.74,2.35,4,.67,3.43-2.25,3.45,2.18,5.12-.55,5.75-3.53a3.68,3.68,0,0,0,5.91,1.11c2.94-1.56.87-9.78-1.27-5.57,1,.95.41,3.45-.47,4.18-5.12,1.83-2.52-4.06-4.64-4.45C417.2,355.35,419,360.93,416.15,362.58Z" transform="translate(-180 -163.5)"/><path d="M304.06,362.38c-1.86-.84-2.6-4.86-2.5-6.79-2.21-2.06-2.52,2.2-1.67,3.77-1.59-.95-1.71.93-3.08.79-3.9-.19.34-8.86-3.88-4.95-2.19,4.27,3.82,10.18,7,4.86.59,3,2.31,5.2,5.8,3.74a4.36,4.36,0,0,0,4.75,3.1C304.53,365.6,308.52,352,304.06,362.38Z" transform="translate(-180 -163.5)"/><path d="M408.25,244.22c3.48-4.46-6-12.55-8.08-17.53C390.77,218,406.62,242.24,408.25,244.22Z" transform="translate(-180 -163.5)"/><path d="M320.85,225.27c-2.73,5.24-12.33,13.91-9,18.95C313,241.65,328.12,222.07,320.85,225.27Z" transform="translate(-180 -163.5)"/><path d="M332.17,245.47c-3.4.29-2.71,5.54-3.32-.39-3.82-5-4,10.07.69,8.82,2.37-.33,1.64-4.11,2.22-5.86.75,1.07,1.36,4.23,3.77,2.81C332.88,249.87,334,246.91,332.17,245.47Z" transform="translate(-180 -163.5)"/><path d="M392.47,243.91c-2.45-.1-.56,4.76-1.88,4.3-.54-1.23-.95-2.92-2.75-2.73-1.73,1.48-.75,4.37-3.31,5.41,2,1.15,3.35-1.23,3.55-2.89C389.3,261.56,397.55,248.14,392.47,243.91Z" transform="translate(-180 -163.5)"/><path d="M378.19,353.37c-.18-.93-2.57-3.25-1.75-1.3,1.68,6.09-2.68.47-3.64,1.77-1.53,1.62-4.89-1.13-6.9-.15,1.54,1.29,4.11,1.07,6.23,1.85-2.89,3.31-3.78,8.14.75,2.41C375.89,361,381.68,356,378.19,353.37Zm-4.34,3.08c.31-.75.84-.87,2-.44C375.13,357,375.08,357,373.85,356.45Z" transform="translate(-180 -163.5)"/><path d="M353.33,353.49c-2.47.18-5.13,1.72-7.2-.19-1.52,3.65-4.21.24-2.1-2-5.81,1.27-2.22,10.55,3.16,6.65,3.82,5.06,3.8.78.76-2.27C349.13,354.75,355.46,354.54,353.33,353.49ZM344.12,356c1.26-.44,1.78-.32,2.09.44A1.29,1.29,0,0,1,344.12,356Z" transform="translate(-180 -163.5)"/><path d="M376.55,255.49c4.33.07,4.31-7.87,5.22-10.78C380.48,236.69,375.44,253.87,376.55,255.49Z" transform="translate(-180 -163.5)"/><path d="M339.21,242.5c-3.08,2.2,3,18,4.63,11.24C341.66,250.42,342.66,244.06,339.21,242.5Z" transform="translate(-180 -163.5)"/><path d="M385.31,205.79c8.31-3.65,14.49,3.13,19.56,7.36C403.94,206.45,391.08,199.62,385.31,205.79Z" transform="translate(-180 -163.5)"/><path d="M334.81,205.68c-5.14-5.65-19.16.5-19.55,7.52C320.19,208.32,326.48,202.57,334.81,205.68Z" transform="translate(-180 -163.5)"/><path d="M324.92,348.51c-3.72,2.24,8.05,6.26,2.18,6.68,2.12.95,3.86,1.3,5.25,3.44,3,2.48,3.58-1.65,5.92-2.2l-2.95-1.57C329.45,360,328.78,348.73,324.92,348.51Z" transform="translate(-180 -163.5)"/><path d="M392.57,355.72c-3.47-2.55,2.54-2.65,3.22-6.38-3.72-3.43-4.39,9.29-9.66,6.43-1.58-1.54-2.68-.11-4.4.7C388.42,362.52,386.26,356.71,392.57,355.72Z" transform="translate(-180 -163.5)"/><path d="M409.82,226.3c3.51-2.61-6.95-9.52-10.46-10.94C393.49,215.46,408.74,223.12,409.82,226.3Z" transform="translate(-180 -163.5)"/><path d="M309.94,226.65a52,52,0,0,1,12.76-10.34C319.75,213.11,306.54,224.2,309.94,226.65Z" transform="translate(-180 -163.5)"/><path d="M310.74,347.5c-2.93-6.94-6.34-13.84-6.74-21.5C301.62,332.28,305.66,342.54,310.74,347.5Z" transform="translate(-180 -163.5)"/><path d="M409.4,347.55a30,30,0,0,0,7.4-18.71C417.14,320.64,411.87,344.71,409.4,347.55Z" transform="translate(-180 -163.5)"/><path d="M267.29,348.42c-1.28,1.07,3.26,5.78,4.48,8C277.24,357.73,270.63,348.33,267.29,348.42Z" transform="translate(-180 -163.5)"/><path d="M448.71,356.11c.6-2.54,5.48-6.57,4.1-7.7C449.23,348,442.47,358.73,448.71,356.11Z" transform="translate(-180 -163.5)"/><path d="M300.8,336.56c-2.79-2.16-1-11.87-5.17-10.35C296.11,328.77,298.15,340.18,300.8,336.56Z" transform="translate(-180 -163.5)"/><path d="M424.33,326.14c-3.87-1.27-2.14,8.36-5.09,10.45C422.11,340.13,423.68,328.82,424.33,326.14Z" transform="translate(-180 -163.5)"/><path d="M355,355c-12.45,2.16,10.94,1.88,14.58,1.39C365.32,353.24,359.81,357.3,355,355Z" transform="translate(-180 -163.5)"/><path d="M291.36,317.72c2.31,4.08-4.49,12.17.69,12.75C292.59,326.21,294.14,321.48,291.36,317.72Z" transform="translate(-180 -163.5)"/><path d="M430.52,330c-1.21-4-2.62-7.81-1.86-12C426.71,320.18,425.65,331.88,430.52,330Z" transform="translate(-180 -163.5)"/><path d="M251.12,353.69c-2.45-.25-1.77,3.29-5-2.18,1.91-2.64-2.76-1.1-1.43.71,1.05,1.34,7.1,8.88,6.6,6C249,356.79,250.43,355.55,251.12,353.69Z" transform="translate(-180 -163.5)"/><path d="M474.92,350.49c-1.12-1.21-2.26-.07-.95,1-2.16,5.73-5.31.32-4.65,3.19,1.74,2.28.1,2.39-1,4.35C470.25,358.61,477,352.31,474.92,350.49Z" transform="translate(-180 -163.5)"/><path d="M480.57,349.81c-2.41-1.16-2.16,4-3.38,5.31C479.92,355.41,479.83,351.6,480.57,349.81Z" transform="translate(-180 -163.5)"/><path d="M239.48,349.82c.73,1.63.79,6.14,3.48,5.13C241.67,353.76,241.82,348.64,239.48,349.82Z" transform="translate(-180 -163.5)"/><path d="M407,389c-4.16-4.32-2.91,9-2,11.13,2.54-4.45-.6-7.11,3.32-11C408.68,385.31,406.76,385,407,389Z" transform="translate(-180 -163.5)"/><path d="M420,380.42c.41,2.17,1.13,3.94.17,5.85.66,1.19,2.66,3.38,3.62,1.29C423,385.94,422,377.83,420,380.42Z" transform="translate(-180 -163.5)"/><path d="M415.69,381.4c-.11,1.53,1.46,14.3,2.92,7.52C417.93,386.68,418.51,382.93,415.69,381.4Z" transform="translate(-180 -163.5)"/><path d="M483,427.88c1.18,2.58,6.22-3.72,7-5.6C487.12,422.38,485.6,426.48,483,427.88Z" transform="translate(-180 -163.5)"/><path d="M480.79,425.48c-3.79,2.5-8.27,7.79-13.58,10A25.89,25.89,0,0,0,480.79,425.48Z" transform="translate(-180 -163.5)"/><path d="M413.31,390.47c-1.17-2.08-1.26-4.35-2.7-6.16C408.94,385.4,411.51,393.42,413.31,390.47Z" transform="translate(-180 -163.5)"/><path d="M496.27,409.52a22,22,0,0,0-5.31,9.17A24.3,24.3,0,0,0,496.27,409.52Z" transform="translate(-180 -163.5)"/><path d="M426.84,390.35l3.43,3.83C429.55,391.08,427.2,390.11,426.84,390.35Z" transform="translate(-180 -163.5)"/><path d="M460.23,436.21c.3,1.15,2.31-.45,3.28-.52C463.13,434.82,461.17,436.18,460.23,436.21Z" transform="translate(-180 -163.5)"/><path d="M312.26,390.76c4,.73,0,7,2.77,9.39,1.05-2,2-15.6-1.71-11.09C312.77,383.35,310.72,387.27,312.26,390.76Z" transform="translate(-180 -163.5)"/><path d="M297.56,388.48c3.91-1.56.88-5.08,2.61-8.22C298.39,377.83,294.64,388.58,297.56,388.48Z" transform="translate(-180 -163.5)"/><path d="M301.49,389.15c2.15,5.6,1.89-5.07,3.15-6.66C302.93,379.28,301.54,387.51,301.49,389.15Z" transform="translate(-180 -163.5)"/><path d="M231,422.18c-2.11,1.35,3.59,5.76,5.69,6.66C237.8,426.82,232.18,424.34,231,422.18Z" transform="translate(-180 -163.5)"/><path d="M239.51,425.17c1.87,4.87,8,8.32,13.33,10.23A44.24,44.24,0,0,1,239.51,425.17Z" transform="translate(-180 -163.5)"/><path d="M307.65,391.51c1.92-1.33,1.68-4,2.69-5.87C309.18,382.07,306.3,390.25,307.65,391.51Z" transform="translate(-180 -163.5)"/><path d="M223.79,410.37c1.85,2,3.08,7.85,5.5,7.94C228.08,416.48,224.91,408.6,223.79,410.37Z" transform="translate(-180 -163.5)"/><path d="M289.41,393.86c.89.42,3.48-2.86,3.52-3.63C290.86,390.67,290.88,392.9,289.41,393.86Z" transform="translate(-180 -163.5)"/><path d="M256.66,435.31c.07.85,2.1,1.18,3,1.32C260,435.65,257.46,435.78,256.66,435.31Z" transform="translate(-180 -163.5)"/><path d="M357,451.58h6C361.63,448.6,358.4,448.64,357,451.58Z" transform="translate(-180 -163.5)"/><path d="M341,525.49c1-.94.55-4.29-.67-6.08C339.57,520.72,340.93,523.54,341,525.49Z" transform="translate(-180 -163.5)"/><path d="M379.79,519.42c-1.18,1.6-1.72,5.08-.68,6.13C379.17,523.49,380.4,520.8,379.79,519.42Z" transform="translate(-180 -163.5)"/></svg>